<svg width="96" height="96" xmlns="http://www.w3.org/2000/svg" xmlns:xlink="http://www.w3.org/1999/xlink" xml:space="preserve" overflow="hidden"><g><path d="M42.0849 19.4775 44.7157 21.1728C45.8483 21.874 47.28 21.874 48.4125 21.1728L51.0429 19.4785 51.1225 19.4316C51.5538 19.2095 52.0778 19.2792 52.4359 19.6065L54.2748 21.8613C55.1654 22.8554 56.5576 23.2322 57.828 22.8232L58.4241 22.6406 58.8043 21.6978C59.027 21.2051 59.2519 20.7142 59.479 20.2251L57.2421 20.9111C56.7482 21.0798 56.2014 20.9589 55.8246 20.5976L53.9858 18.3427C53.0265 17.2864 51.4784 17.0039 50.2079 17.6533 50.1225 17.6972 50.0399 17.7451 49.9608 17.7959L47.329 19.4912C46.857 19.7695 46.2712 19.7695 45.7992 19.4912L43.1684 17.7959C42.433 17.3412 41.5464 17.1993 40.7058 17.4019L41.0856 19.3716C41.4186 19.2631 41.782 19.3016 42.0849 19.4775Z"/><path d="M77.1093 12.499C76.5772 11.1243 75.5005 10.0308 74.1342 9.47752 68.8324 7.17234 64.9053 13.4424 61.6432 20.3213 62.7945 19.3491 64.094 18.2988 65.4931 17.2529 68.4782 12.0019 70.886 10.2475 73.3344 11.3105 74.2102 11.6527 74.9028 12.3457 75.2446 13.2217 76.5579 16.6103 73.7081 23.4912 70.107 31.5996L67.5058 29.999 64.2558 31.999 61.0058 29.999 59.0541 31.2002C59.2842 30.6631 59.5195 30.1172 59.7436 29.5918L60.56 27.6816C60.9925 26.6654 61.64 25.7549 62.4579 25.0127 64.8273 22.8462 67.3514 20.8552 70.0102 19.0557 70.4708 18.7512 70.5974 18.131 70.2929 17.6704 69.9885 17.2098 69.3683 17.0832 68.9077 17.3877 66.1639 19.2428 63.5593 21.2958 61.1147 23.5303 60.0836 24.4654 59.2673 25.6128 58.7221 26.8936L57.9042 28.8066C57.5429 29.6533 57.1656 30.5303 56.7894 31.4043L54.5058 29.999 51.2558 31.999 48.0058 29.999 44.7558 31.999 41.5058 29.999 41.1408 30.2236 38.0791 14.3423 21.6529 17.5088 24.3374 31.4336 22.0058 29.999 22.0058 60.9971 24.0058 58.9971 24.0058 33.5781 24.2076 33.7021 25.2558 34.3471 26.304 33.7021 28.5058 32.3471 30.7076 33.7021 31.7558 34.3471 32.804 33.7021 35.0058 32.3471 37.2076 33.7021 38.2558 34.3471 39.304 33.7021 41.5058 32.3471 43.7076 33.7021 44.7558 34.3471 45.8039 33.7021 48.0058 32.3471 50.2076 33.7021 51.2558 34.3471 52.304 33.7021 54.5058 32.3471 56.7076 33.7021 57.7558 34.3471 58.804 33.7021 61.0058 32.3471 63.2076 33.7021 64.2558 34.3471 65.304 33.7021 67.5058 32.3471 69.7076 33.7021 70.7558 34.3471 71.804 33.7021 72.0058 33.5781 72.0058 81.999C72.0046 83.1031 71.1099 83.9978 70.0058 83.999L36.7434 83.999C36.3478 84.7113 35.8807 85.3814 35.3493 85.999L70.0058 85.999C72.2149 85.999 74.0057 84.2081 74.0058 81.999L74.0058 29.999 72.6273 30.8472C76.177 22.7725 78.6148 16.3828 77.1093 12.499ZM38.2558 31.999 35.0058 29.999 31.7558 31.999 28.5058 29.999 26.353 31.3237 23.9953 19.0942 36.4938 16.6846 39.3199 31.3442Z"/><path d="M35.5766 69.3809C32.9623 66.5332 29.8378 67.5732 27.7694 68.2617 27.5426 68.3369 27.3284 68.4048 27.1139 68.4717 27.0345 68.1981 26.9382 67.9297 26.8255 67.668 26.9292 67.6582 27.0337 67.6597 27.1365 67.6412 28.1616 67.4914 29.1149 67.0268 29.8643 66.3116 30.8653 65.1055 31.3809 63.5697 31.3105 62.004 31.3105 62.0039 31.2392 62 31.1133 62 29.6106 61.9568 28.1456 62.4736 27.0028 63.4502 26.4153 64.0846 25.9969 64.8567 25.7864 65.6953 25.7791 65.6851 25.7729 65.6733 25.7655 65.6631 25.0298 64.637 24.1121 63.7546 23.058 63.0596L21.9555 64.7276C22.8062 65.2891 23.5469 66.0017 24.141 66.8301 24.3336 67.1012 24.5008 67.3896 24.6405 67.6914L24.8788 68.1953C24.8983 68.2368 24.9105 68.272 24.9287 68.3125 24.885 68.2979 24.8464 68.2871 24.8021 68.2725 22.5927 67.5557 19.2543 66.4717 16.6356 69.3565 14.4183 71.8028 14.7631 79.9024 18.0253 84.2198 19.8012 86.8822 23.296 87.7817 26.1366 86.3077 27.0881 86.7478 28.1211 86.984 29.1693 87.001 31.191 86.9626 33.0676 85.9434 34.2006 84.2686 37.4721 79.957 37.81 71.8447 35.5766 69.3809ZM32.6073 83.0596C31.0307 85.1377 29.0609 85.5469 26.5858 84.3086L26.141 84.0859 25.6947 84.3066C23.1991 85.542 21.2123 85.1191 19.621 83.0136 16.9135 79.4306 16.6381 72.331 18.1171 70.7001 19.7416 68.9111 21.6571 69.3544 24.1845 70.1748 24.5004 70.2773 24.8031 70.3759 25.0878 70.4589 25.4113 70.553 25.7453 70.6062 26.082 70.6171L26.1943 70.622C26.614 70.6353 27.0332 70.5832 27.4369 70.4677 27.7446 70.3769 28.0673 70.2705 28.4013 70.1591 30.7953 69.3613 32.4853 68.9716 34.0995 70.7294 35.5873 72.3711 35.3217 79.4824 32.6073 83.0596Z"/></g></svg>